<svg width="1409" height="1409" viewBox="0 0 1409 1409" xmlns="http://www.w3.org/2000/svg"><path d="M1024.4 1216.2c0 53.3 18.7 98.7 56 136s82.7 56 136 56 98.7-18.7 136-56 56-82.7 56-136-18.7-98.7-56-136a185.2 185.2 0 00-136-56c-53.3 0-98.7 18.7-136 56a185.2 185.2 0 00-56 136zm-512 123a60.5 60.5 0 0017 48 59 59 0 0047 21h135c16.7 0 31-5.5 43-16.5s18.7-24.8 20-41.5a622 622 0 01184.5-391.5 622 622 0 01391.5-184.5c16.7-1.3 30.5-8 41.5-20s16.5-26.3 16.5-43v-135c0-19.3-7-35-21-47a58.3 58.3 0 00-43-17h-5a896.7 896.7 0 00-306 80.5 884.2 884.2 0 00-259 181.5 884.2 884.2 0 00-181.5 259 896.7 896.7 0 00-80.5 306zm-512 2a57.8 57.8 0 0018 47c12 13.3 27.3 20 46 20h143c17.3 0 32.2-5.8 44.5-17.5a59.8 59.8 0 0019.5-42.5 1118 1118 0 01101-408.5c59.3-129 136.5-241 231.5-336s207-172.2 336-231.5c129-59.3 265.2-93.3 408.5-102a59.8 59.8 0 0042.5-19.5 61.2 61.2 0 0017.5-43.5v-143c0-18.7-6.7-34-20-46-12-12-26.7-18-44-18h-3a1387.6 1387.6 0 00-501.5 120 1401.9 1401.9 0 00-425.5 294 1401.9 1401.9 0 00-294 425.5 1387.6 1387.6 0 00-120 501.5z" fill="rgba(249, 165, 1, 0.1)" fill-rule="nonzero"/></svg>
